<svg width="30" height="24" viewBox="0 0 30 24" fill="none" xmlns="http://www.w3.org/2000/svg">
<path d="M27 0H3C2.20695 0.00396529 1.44774 0.321786 0.88837 0.883965C0.329001 1.44615 0.0149902 2.20694 0.0150001 3L0 21C0.00237409 21.7949 0.319207 22.5566 0.881302 23.1187C1.4434 23.6808 2.20508 23.9976 3 24H27C27.7949 23.9976 28.5566 23.6808 29.1187 23.1187C29.6808 22.5566 29.9976 21.7949 30 21V3C29.9976 2.20508 29.6808 1.4434 29.1187 0.881302C28.5566 0.319207 27.7949 0.00237409 27 0ZM27 6L15 13.5L3 6V3L15 10.5L27 3V6Z" fill="white"/>
</svg>
